<?xml version="1.0" encoding="UTF-8"?>
<svg id="Layer_1" data-name="Layer 1" xmlns="http://www.w3.org/2000/svg" viewBox="0 0 1064 254">
  <defs>
    <style>
      .cls-1 {
        fill: #fff;
      }
    </style>
  </defs>
  <path class="cls-1" d="M2,252v-16h17.9l62.84-153.16L388.13,2h287.74l305.39,80.84,62.83,153.16h17.9v16H2ZM827.36,236h198.78l-52.21-124.01-6.69-15.87-139.88,139.88ZM684,236h128V51.97l-128-32v216.03ZM540,236h128V18h-128v218ZM396,236h128V18h-128v218ZM252,51.97v184.03h128V19.97l-128,32ZM37.86,236h199.55L96.99,95.57l-59.12,140.43ZM828,220.18l131.38-131.38-131.38-32.84v164.21ZM105.24,88.66l130.76,130.76V55.97l-130.76,32.69Z"/>
  <path d="M675.74,3l304.79,80.68,62.39,152.08.51,1.24h17.57v14H3v-14h17.57l.51-1.24,62.39-152.08L388.26,3h287.48M539,237h130V17h-130v220M395,237h130V17h-130v220M683,237h130V51.19l-1.51-.38-126-31.5-2.49-.62v218.31M251,237h130V18.69l-2.49.62-126,31.5-1.51.38v185.81M237,221.83V54.69l-2.49.62-127.8,31.95-3.43.86,2.5,2.5,127.8,127.8,3.41,3.41M827,222.6l3.41-3.41,128.42-128.42,2.5-2.5-3.43-.86-128.42-32.1-2.49-.62v167.91M36.36,237h203.47l-3.41-3.41-126-126-11.67-11.67-2.1-2.1-1.15,2.74-57.96,137.67-1.17,2.78M824.94,237h202.7l-1.17-2.78-51.63-122.62-6.11-14.5-1.15-2.74-2.1,2.1-137.12,137.12-3.41,3.41M676,1h-288L82,82,19.23,235H1v18h1062v-18h-18.23l-62.77-153L676,1h0ZM541,235V19h126v216h-126ZM397,235V19h126v216h-126ZM685,235V21.25l126,31.5v182.25h-126ZM253,235V52.75l126-31.5v213.75h-126ZM829,217.77V57.25l128.42,32.1-128.42,128.42h0ZM235,217l-127.8-127.8,127.8-31.95v159.75h0ZM39.37,235l57.96-137.67,11.67,11.67,126,126H39.37ZM829.77,235l137.12-137.12,6.11,14.5,51.63,122.62h-194.86Z"/>
</svg>