<?xml version="1.0" encoding="UTF-8"?>
<svg id="Layer_1" data-name="Layer 1" xmlns="http://www.w3.org/2000/svg" viewBox="0 0 1802.42 830.58">
  <defs>
    <style>
      .cls-1 {
        fill: #4378ff;
      }
    </style>
  </defs>
  <g>
    <path class="cls-1" d="M1,426.69v-28.55h30.61l106.6-259.83L656.94,1h488.53l518.74,137.31,106.6,259.83h30.61v28.55H1ZM1404.17,398.14h334.63l-88.21-209.5-10.95-25.98-235.48,235.48ZM1159.88,398.14h215.85V87.05l-215.85-53.96v365.06ZM915.48,398.14h215.85V29.55h-215.85v368.59ZM671.09,398.14h215.85V29.55h-215.85v368.59ZM426.69,87.05v311.09h215.85V33.09l-215.85,53.96ZM63.62,398.14h335.94l-236.41-236.41-99.53,236.41ZM1404.27,370.31l220.91-220.91-220.91-55.22v276.13ZM178.29,149.15l219.86,219.86V94.19l-219.86,54.96Z"/>
    <path d="M1145.34,2l518.13,137.15,106.16,258.75.51,1.24h30.28v26.55H2v-26.55h30.28l.51-1.24,106.16-258.75L657.07,2h488.27M914.48,399.14h217.85V28.55h-217.85v370.59M670.09,399.14h217.85V28.55h-217.85v370.59M1158.88,399.14h217.85V86.27l-1.52-.38-213.85-53.46-2.48-.62v367.34M425.69,399.14h217.85V31.81l-2.48.62-213.85,53.46-1.51.38v312.87M399.14,371.42V92.91l-2.48.62-216.9,54.23-3.43.86,2.5,2.5,216.9,216.9,3.41,3.41M1403.27,372.73l3.41-3.41,217.95-217.95,2.5-2.5-3.43-.86-217.95-54.48-2.48-.62v279.82M62.11,399.14h339.86l-3.41-3.41-213.85-213.85-19.81-19.81-2.1-2.1-1.15,2.74-98.37,233.65-1.17,2.78M1401.75,399.14h338.56l-1.17-2.78-87.63-208.11-10.37-24.61-1.15-2.74-2.1,2.1-232.72,232.72-3.41,3.41M1145.6,0h-488.79L137.47,137.47,30.94,397.14H0v30.55h1802.42v-30.55h-30.94l-106.53-259.67L1145.6,0h0ZM916.48,397.14V30.55h213.85v366.59h-213.85ZM672.09,397.14V30.55h213.85v366.59h-213.85ZM1160.88,397.14V34.37l213.85,53.46v309.31h-213.85ZM427.69,397.14V87.83l213.85-53.46v362.77h-213.85ZM1405.27,367.9V95.47l217.95,54.48-217.95,217.95h0ZM397.14,366.59l-216.9-216.9,216.9-54.23v271.13h0ZM65.12,397.14l98.37-233.65,19.81,19.81,213.85,213.85H65.12ZM1406.58,397.14l232.72-232.72,10.37,24.61,87.63,208.11h-330.71Z"/>
  </g>
  <g>
    <g>
      <path d="M367.13,571.48c7.25,0,13.52,1.09,18.84,3.26,5.31,2.17,9.71,5.14,13.19,8.91,3.48,3.77,6.06,8.17,7.75,13.19,1.69,5.03,2.54,10.34,2.54,15.94,0,3.96-.46,7.83-1.38,11.59-.92,3.77-2.3,7.27-4.13,10.51-1.84,3.24-4.15,6.18-6.96,8.84-2.8,2.66-6.09,4.85-9.85,6.59l24.49,34.2h-34.64l-21.45-30.29h-14.78v30.29h-28.84v-113.04h55.21ZM340.76,597.86v30.14h24.78c2.9,0,5.36-.41,7.39-1.23,2.03-.82,3.67-1.91,4.93-3.26,1.25-1.35,2.17-2.95,2.75-4.78.58-1.83.87-3.72.87-5.65,0-4.35-1.21-7.97-3.62-10.87-2.42-2.9-6.52-4.35-12.32-4.35h-24.78Z"/>
      <path d="M485.24,571.48v113.04h-28.98v-113.04h28.98Z"/>
      <path d="M572.91,684.52l-45.65-113.04h31.59l28.4,75.94,28.55-75.94h31.59l-45.79,113.04h-28.69Z"/>
      <path d="M689.43,571.48h86.81v28.11h-57.82v16.23h47.53v26.23h-47.53v14.49h57.82v27.97h-86.81v-113.04Z"/>
      <path d="M878.83,571.48c7.25,0,13.52,1.09,18.84,3.26,5.31,2.17,9.71,5.14,13.19,8.91,3.48,3.77,6.06,8.17,7.75,13.19,1.69,5.03,2.54,10.34,2.54,15.94,0,3.96-.46,7.83-1.38,11.59-.92,3.77-2.3,7.27-4.13,10.51-1.84,3.24-4.15,6.18-6.96,8.84-2.8,2.66-6.09,4.85-9.85,6.59l24.49,34.2h-34.64l-21.45-30.29h-14.78v30.29h-28.84v-113.04h55.21ZM852.46,597.86v30.14h24.78c2.9,0,5.36-.41,7.39-1.23,2.03-.82,3.67-1.91,4.93-3.26,1.25-1.35,2.17-2.95,2.75-4.78.58-1.83.87-3.72.87-5.65,0-4.35-1.21-7.97-3.62-10.87-2.42-2.9-6.52-4.35-12.32-4.35h-24.78Z"/>
      <path d="M998.68,684.52l-45.65-113.04h31.59l28.4,75.94,28.55-75.94h31.59l-45.79,113.04h-28.69Z"/>
      <path d="M1144.17,571.48v113.04h-28.98v-113.04h28.98Z"/>
      <path d="M1194.89,571.48h86.81v28.11h-57.82v16.23h47.53v26.23h-47.53v14.49h57.82v27.97h-86.81v-113.04Z"/>
      <path d="M1351.98,684.52l-31.74-113.04h30.87l18.26,67.39,21.16-67.39h25.79l21.16,67.24,18.26-67.24h31.01l-31.74,113.04h-30l-21.59-65.65-21.45,65.65h-30Z"/>
    </g>
    <g>
      <path d="M180.85,765.77h55.92v15.81h-19.81v47.77h-16.3v-47.77h-19.81v-15.81Z"/>
      <path d="M261.39,765.77h48.83v15.81h-32.52v9.13h26.74v14.75h-26.74v8.15h32.52v15.73h-48.83v-63.58Z"/>
      <path d="M397.77,812.32c-1.41,2.72-3.15,5.19-5.22,7.42-2.07,2.23-4.4,4.14-7.01,5.75-2.61,1.6-5.43,2.85-8.48,3.75-3.04.9-6.2,1.34-9.46,1.34-4.56,0-8.9-.87-13-2.61-4.1-1.74-7.69-4.1-10.76-7.09-3.07-2.99-5.5-6.48-7.3-10.47-1.79-4-2.69-8.27-2.69-12.84s.9-8.84,2.69-12.84,4.22-7.49,7.3-10.48c3.07-2.99,6.66-5.35,10.76-7.09,4.1-1.74,8.44-2.61,13-2.61,3.26,0,6.4.45,9.42,1.34,3.02.9,5.83,2.13,8.44,3.71,2.61,1.58,4.94,3.48,7.01,5.71,2.06,2.23,3.8,4.67,5.22,7.34l-14.84,6.68c-1.41-2.72-3.46-4.9-6.15-6.56-2.69-1.66-5.72-2.49-9.09-2.49-2.39,0-4.63.45-6.73,1.35-2.09.9-3.93,2.12-5.5,3.67-1.58,1.55-2.81,3.38-3.71,5.5-.9,2.12-1.34,4.38-1.34,6.77s.45,4.65,1.34,6.77c.9,2.12,2.13,3.95,3.71,5.5,1.58,1.55,3.41,2.77,5.5,3.67,2.09.9,4.33,1.34,6.73,1.34,3.42,0,6.47-.83,9.13-2.49,2.66-1.66,4.7-3.84,6.11-6.56l14.92,6.52Z"/>
      <path d="M480.67,765.77v63.58h-16.3v-23.64h-25.92v23.64h-16.22v-63.58h16.22v24.7h25.92v-24.7h16.3Z"/>
      <path d="M509.2,829.36v-63.58h13.86l28.37,35.54v-35.54h16.22v63.58h-13.78l-28.37-35.46v35.46h-16.3Z"/>
      <path d="M593.16,797.57c0-4.57.9-8.84,2.69-12.84s4.22-7.49,7.3-10.48c3.07-2.99,6.66-5.35,10.76-7.09,4.1-1.74,8.44-2.61,13-2.61s8.98.87,13.08,2.61c4.1,1.74,7.69,4.1,10.76,7.09,3.07,2.99,5.49,6.48,7.25,10.48,1.77,3.99,2.65,8.27,2.65,12.84s-.88,8.84-2.65,12.84c-1.77,3.99-4.19,7.49-7.25,10.47-3.07,2.99-6.66,5.35-10.76,7.09-4.1,1.74-8.46,2.61-13.08,2.61s-8.9-.87-13-2.61c-4.1-1.74-7.69-4.1-10.76-7.09-3.07-2.99-5.5-6.48-7.3-10.47-1.79-4-2.69-8.27-2.69-12.84ZM609.63,797.57c0,2.39.45,4.65,1.34,6.77.9,2.12,2.13,3.95,3.71,5.5,1.58,1.55,3.41,2.77,5.5,3.67,2.09.9,4.33,1.34,6.73,1.34s4.71-.45,6.81-1.34c2.09-.9,3.91-2.12,5.46-3.67,1.55-1.55,2.77-3.38,3.67-5.5s1.35-4.37,1.35-6.77-.45-4.65-1.35-6.77c-.9-2.12-2.12-3.95-3.67-5.5-1.55-1.55-3.37-2.77-5.46-3.67-2.09-.9-4.36-1.35-6.81-1.35s-4.63.45-6.73,1.35c-2.09.9-3.93,2.12-5.5,3.67-1.58,1.55-2.81,3.38-3.71,5.5-.9,2.12-1.34,4.38-1.34,6.77Z"/>
      <path d="M686.17,765.77h16.22v47.85h30.49v15.73h-46.71v-63.58Z"/>
      <path d="M754.56,797.57c0-4.57.9-8.84,2.69-12.84s4.22-7.49,7.3-10.48c3.07-2.99,6.66-5.35,10.76-7.09,4.1-1.74,8.44-2.61,13-2.61s8.98.87,13.08,2.61c4.1,1.74,7.69,4.1,10.76,7.09,3.07,2.99,5.49,6.48,7.25,10.48,1.77,3.99,2.65,8.27,2.65,12.84s-.88,8.84-2.65,12.84c-1.77,3.99-4.19,7.49-7.25,10.47-3.07,2.99-6.66,5.35-10.76,7.09-4.1,1.74-8.46,2.61-13.08,2.61s-8.9-.87-13-2.61c-4.1-1.74-7.69-4.1-10.76-7.09-3.07-2.99-5.5-6.48-7.3-10.47-1.79-4-2.69-8.27-2.69-12.84ZM771.03,797.57c0,2.39.45,4.65,1.34,6.77.9,2.12,2.13,3.95,3.71,5.5,1.58,1.55,3.41,2.77,5.5,3.67,2.09.9,4.33,1.34,6.73,1.34s4.71-.45,6.81-1.34c2.09-.9,3.91-2.12,5.46-3.67,1.55-1.55,2.77-3.38,3.67-5.5s1.35-4.37,1.35-6.77-.45-4.65-1.35-6.77c-.9-2.12-2.12-3.95-3.67-5.5-1.55-1.55-3.37-2.77-5.46-3.67-2.09-.9-4.36-1.35-6.81-1.35s-4.63.45-6.73,1.35c-2.09.9-3.93,2.12-5.5,3.67-1.58,1.55-2.81,3.38-3.71,5.5-.9,2.12-1.34,4.38-1.34,6.77Z"/>
      <path d="M876.51,792.27h30.65v37.09h-12.8v-5.95c-1.58,2.39-3.83,4.19-6.77,5.38-2.93,1.19-6.03,1.79-9.29,1.79-4.62,0-8.97-.87-13.04-2.61s-7.65-4.1-10.72-7.09c-3.07-2.99-5.5-6.48-7.3-10.47-1.79-4-2.69-8.27-2.69-12.84s.9-8.84,2.69-12.84,4.22-7.49,7.3-10.48c3.07-2.99,6.64-5.35,10.72-7.09,4.08-1.74,8.42-2.61,13.04-2.61,5.49,0,10.57,1.21,15.24,3.63,4.67,2.42,8.56,5.64,11.66,9.66l-13.29,8.97c-1.58-2.01-3.55-3.6-5.91-4.77-2.36-1.17-4.93-1.75-7.7-1.75-2.39,0-4.65.45-6.77,1.35-2.12.9-3.95,2.12-5.5,3.67s-2.77,3.38-3.67,5.5c-.9,2.12-1.34,4.38-1.34,6.77s.45,4.65,1.34,6.77c.9,2.12,2.12,3.95,3.67,5.5s3.38,2.77,5.5,3.67c2.12.9,4.37,1.34,6.77,1.34,2.88,0,5.49-.65,7.83-1.96,2.34-1.3,4.27-3.07,5.79-5.3v-1.79h-15.41v-13.53Z"/>
      <path d="M957.21,788.84l14.1-23.07h19.24l-25.19,40.27v23.31h-16.22v-23.31l-25.11-40.27h19.16l14.02,23.07Z"/>
      <path d="M1064.32,810.28v.41c0,.6.22,1.24.65,1.92.43.68,1.09,1.3,1.96,1.88.87.57,1.98,1.05,3.34,1.43,1.36.38,2.96.57,4.81.57,3.04,0,5.15-.42,6.32-1.26,1.17-.84,1.75-1.72,1.75-2.65,0-1.36-.84-2.53-2.53-3.51-1.68-.98-4.46-2.12-8.31-3.42-2.55-.81-5.2-1.78-7.95-2.89-2.75-1.11-5.26-2.49-7.54-4.12-2.28-1.63-4.17-3.61-5.67-5.95-1.5-2.34-2.24-5.14-2.24-8.4,0-3.04.61-5.77,1.83-8.19s2.93-4.48,5.13-6.2c2.2-1.71,4.82-3.03,7.87-3.95,3.04-.92,6.38-1.39,10.03-1.39s7.13.48,10.31,1.43c3.18.95,5.92,2.32,8.23,4.12,2.31,1.79,4.13,3.95,5.46,6.48,1.33,2.53,2,5.37,2,8.52v.9h-15.9v-.57c0-.76-.2-1.55-.61-2.36-.41-.81-1.02-1.55-1.83-2.2-.82-.65-1.83-1.18-3.06-1.59s-2.65-.61-4.28-.61c-2.77,0-4.76.45-5.95,1.34-1.2.9-1.79,1.89-1.79,2.98,0,1.25.8,2.31,2.4,3.18,1.6.87,4.31,1.96,8.11,3.26,2.17.76,4.65,1.7,7.42,2.81,2.77,1.11,5.37,2.53,7.78,4.24s4.46,3.8,6.11,6.28c1.66,2.47,2.49,5.45,2.49,8.93,0,3.1-.64,5.83-1.92,8.19-1.28,2.36-3.04,4.33-5.3,5.91-2.25,1.58-4.92,2.77-7.99,3.59-3.07.82-6.43,1.22-10.07,1.22s-7.35-.44-10.64-1.3c-3.29-.87-6.14-2.13-8.56-3.79-2.42-1.66-4.32-3.71-5.71-6.15s-2.08-5.22-2.08-8.31v-.73h15.9Z"/>
      <path d="M1126.68,765.77h48.83v15.81h-32.53v9.13h26.74v14.75h-26.74v8.15h32.53v15.73h-48.83v-63.58Z"/>
      <path d="M1233.22,765.77c4.08,0,7.61.61,10.6,1.83,2.99,1.22,5.46,2.89,7.42,5.01s3.41,4.59,4.36,7.42c.95,2.83,1.43,5.82,1.43,8.97,0,2.23-.26,4.4-.77,6.52-.52,2.12-1.29,4.09-2.32,5.91-1.03,1.82-2.34,3.48-3.91,4.97-1.58,1.5-3.42,2.73-5.54,3.71l13.78,19.24h-19.48l-12.06-17.04h-8.32v17.04h-16.22v-63.58h31.06ZM1218.39,780.61v16.96h13.94c1.63,0,3.02-.23,4.16-.69,1.14-.46,2.07-1.07,2.77-1.83.71-.76,1.22-1.66,1.55-2.69.33-1.03.49-2.09.49-3.18,0-2.45-.68-4.48-2.04-6.11-1.36-1.63-3.67-2.45-6.93-2.45h-13.94Z"/>
      <path d="M1300.64,829.36l-25.68-63.58h17.77l15.98,42.71,16.06-42.71h17.77l-25.76,63.58h-16.14Z"/>
      <path d="M1382.48,765.77v63.58h-16.3v-63.58h16.3Z"/>
      <path d="M1471.9,812.32c-1.41,2.72-3.15,5.19-5.22,7.42-2.07,2.23-4.4,4.14-7.01,5.75-2.61,1.6-5.44,2.85-8.48,3.75-3.04.9-6.2,1.34-9.46,1.34-4.57,0-8.9-.87-13-2.61-4.1-1.74-7.69-4.1-10.76-7.09-3.07-2.99-5.5-6.48-7.3-10.47-1.79-4-2.69-8.27-2.69-12.84s.9-8.84,2.69-12.84c1.79-3.99,4.23-7.49,7.3-10.48,3.07-2.99,6.66-5.35,10.76-7.09,4.1-1.74,8.44-2.61,13-2.61,3.26,0,6.4.45,9.42,1.34,3.02.9,5.83,2.13,8.44,3.71,2.61,1.58,4.94,3.48,7.01,5.71,2.06,2.23,3.8,4.67,5.22,7.34l-14.84,6.68c-1.41-2.72-3.46-4.9-6.15-6.56-2.69-1.66-5.72-2.49-9.09-2.49-2.39,0-4.63.45-6.73,1.35-2.09.9-3.93,2.12-5.5,3.67-1.58,1.55-2.81,3.38-3.71,5.5-.9,2.12-1.35,4.38-1.35,6.77s.45,4.65,1.35,6.77c.9,2.12,2.13,3.95,3.71,5.5,1.58,1.55,3.41,2.77,5.5,3.67,2.09.9,4.33,1.34,6.73,1.34,3.42,0,6.47-.83,9.13-2.49,2.66-1.66,4.7-3.84,6.11-6.56l14.92,6.52Z"/>
      <path d="M1496.35,765.77h48.83v15.81h-32.53v9.13h26.74v14.75h-26.74v8.15h32.53v15.73h-48.83v-63.58Z"/>
      <path d="M1585.21,810.28v.41c0,.6.22,1.24.65,1.92.43.68,1.09,1.3,1.96,1.88.87.57,1.98,1.05,3.34,1.43,1.36.38,2.96.57,4.81.57,3.04,0,5.15-.42,6.32-1.26,1.17-.84,1.75-1.72,1.75-2.65,0-1.36-.84-2.53-2.53-3.51-1.68-.98-4.46-2.12-8.31-3.42-2.55-.81-5.2-1.78-7.95-2.89-2.75-1.11-5.26-2.49-7.54-4.12-2.28-1.63-4.17-3.61-5.67-5.95-1.5-2.34-2.24-5.14-2.24-8.4,0-3.04.61-5.77,1.83-8.19s2.93-4.48,5.13-6.2c2.2-1.71,4.82-3.03,7.87-3.95,3.04-.92,6.38-1.39,10.03-1.39s7.13.48,10.31,1.43c3.18.95,5.92,2.32,8.23,4.12,2.31,1.79,4.13,3.95,5.46,6.48,1.33,2.53,2,5.37,2,8.52v.9h-15.9v-.57c0-.76-.2-1.55-.61-2.36-.41-.81-1.02-1.55-1.83-2.2-.82-.65-1.83-1.18-3.06-1.59s-2.65-.61-4.28-.61c-2.77,0-4.76.45-5.95,1.34-1.2.9-1.79,1.89-1.79,2.98,0,1.25.8,2.31,2.4,3.18,1.6.87,4.31,1.96,8.11,3.26,2.17.76,4.65,1.7,7.42,2.81,2.77,1.11,5.37,2.53,7.78,4.24s4.46,3.8,6.11,6.28c1.66,2.47,2.49,5.45,2.49,8.93,0,3.1-.64,5.83-1.92,8.19-1.28,2.36-3.04,4.33-5.3,5.91-2.25,1.58-4.92,2.77-7.99,3.59-3.07.82-6.43,1.22-10.07,1.22s-7.35-.44-10.64-1.3c-3.29-.87-6.14-2.13-8.56-3.79-2.42-1.66-4.32-3.71-5.71-6.15s-2.08-5.22-2.08-8.31v-.73h15.9Z"/>
    </g>
  </g>
</svg>